<svg width="23" height="23" viewBox="0 0 23 23" fill="none" xmlns="http://www.w3.org/2000/svg">
<g clip-path="url(#clip0_84_1839)">
<rect x="0.275024" y="0.0516357" width="22.4667" height="22.4667" rx="11.2333" fill="#E5E7EB"/>
<path d="M22.7417 19.7043V22.5192H0.275024V19.7146C1.58179 17.9683 3.27798 16.5509 5.22873 15.5752C7.17947 14.5995 9.33096 14.0924 11.5121 14.0942C16.1028 14.0942 20.1805 16.2978 22.7417 19.7043ZM15.2547 8.47662C15.2547 9.46971 14.8602 10.4221 14.158 11.1243C13.4557 11.8266 12.5033 12.2211 11.5102 12.2211C10.5171 12.2211 9.56473 11.8266 8.86251 11.1243C8.16029 10.4221 7.76579 9.46971 7.76579 8.47662C7.76579 7.48353 8.16029 6.53112 8.86251 5.8289C9.56473 5.12668 10.5171 4.73218 11.5102 4.73218C12.5033 4.73218 13.4557 5.12668 14.158 5.8289C14.8602 6.53112 15.2547 7.48353 15.2547 8.47662Z" fill="#D1D5DB"/>
</g>
<defs>
<clipPath id="clip0_84_1839">
<rect x="0.275024" y="0.0516357" width="22.4667" height="22.4667" rx="11.2333" fill="white"/>
</clipPath>
</defs>
</svg>
