<svg width="18" height="18" viewBox="0 0 18 18" fill="none" xmlns="http://www.w3.org/2000/svg">
<path d="M8.69996 16.639C8.15233 16.639 7.61875 16.3582 7.25367 15.8667L6.54456 14.9189C6.39713 14.7223 6.20054 14.61 5.98992 14.5959C5.77929 14.5889 5.56867 14.6802 5.40017 14.8557L4.99998 14.4977L5.38613 14.8557C4.37513 15.9369 3.59581 15.8527 3.22371 15.7052C2.84458 15.5578 2.20569 15.0734 2.20569 13.5147V5.60928C2.20569 2.49203 3.10436 1.54422 6.04608 1.54422H11.3538C14.2956 1.54422 15.1942 2.49203 15.1942 5.60928V13.5147C15.1942 15.0663 14.5553 15.5508 14.1762 15.7052C13.8041 15.8527 13.0318 15.9369 12.0138 14.8557C11.8453 14.6732 11.6347 14.5749 11.417 14.5959C11.2064 14.61 11.0028 14.7223 10.8554 14.9189L10.1463 15.8667C9.78117 16.3582 9.24758 16.639 8.69996 16.639ZM5.94779 13.5358C5.97588 13.5358 6.01098 13.5358 6.03906 13.5358C6.55861 13.5639 7.05006 13.8377 7.38004 14.28L8.08915 15.2278C8.43317 15.6842 8.95973 15.6842 9.30375 15.2278L10.0129 14.28C10.3499 13.8377 10.8343 13.5639 11.3609 13.5358C11.8804 13.5077 12.3999 13.7254 12.7791 14.1326C13.3126 14.7013 13.6567 14.7715 13.783 14.7223C13.9515 14.6521 14.1341 14.2449 14.1341 13.5147V5.60928C14.1341 3.07476 13.6918 2.59734 11.3468 2.59734H6.04608C3.70113 2.59734 3.25881 3.07476 3.25881 5.60928V13.5147C3.25881 14.2519 3.44136 14.6591 3.60986 14.7223C3.72921 14.7715 4.08025 14.7013 4.61383 14.1326C4.99296 13.7464 5.46336 13.5358 5.94779 13.5358Z" fill="#111827"/>
<path d="M11.6698 8.91607H7.8083C7.52045 8.91607 7.28174 8.67736 7.28174 8.38951C7.28174 8.10165 7.52045 7.86295 7.8083 7.86295H11.6698C11.9576 7.86295 12.1963 8.10165 12.1963 8.38951C12.1963 8.67736 11.9576 8.91607 11.6698 8.91607Z" fill="#111827"/>
<path d="M11.6698 6.10772H7.8083C7.52045 6.10772 7.28174 5.86901 7.28174 5.58116C7.28174 5.2933 7.52045 5.0546 7.8083 5.0546H11.6698C11.9576 5.0546 12.1963 5.2933 12.1963 5.58116C12.1963 5.86901 11.9576 6.10772 11.6698 6.10772Z" fill="#111827"/>
<path d="M5.73718 6.28323C5.35103 6.28323 5.0351 5.96729 5.0351 5.58114C5.0351 5.195 5.35103 4.87906 5.73718 4.87906C6.12332 4.87906 6.43926 5.195 6.43926 5.58114C6.43926 5.96729 6.12332 6.28323 5.73718 6.28323Z" fill="#111827"/>
<path d="M5.73718 9.09158C5.35103 9.09158 5.0351 8.77564 5.0351 8.38949C5.0351 8.00335 5.35103 7.68741 5.73718 7.68741C6.12332 7.68741 6.43926 8.00335 6.43926 8.38949C6.43926 8.77564 6.12332 9.09158 5.73718 9.09158Z" fill="#111827"/>
</svg>
