<svg xmlns="http://www.w3.org/2000/svg" xml:space="preserve" width="2048" height="2048" style="shape-rendering:geometricPrecision;text-rendering:geometricPrecision;image-rendering:optimizeQuality;fill-rule:evenodd;clip-rule:evenodd"><defs><style>.fil0,.fil1{fill:#212121;fill-rule:nonzero}.fil0{fill:#66bb6a}</style></defs><g id="Layer_x0020_1"><path class="fil0" d="M914.026 1190.48h26.676c6.468 0 12.338 2.56 16.654 6.72 10.778 8.65 22.026 15.553 33.59 20.221 10.69 4.316 21.75 6.685 33.054 6.685 11.304 0 22.363-2.37 33.054-6.685 12.089-4.88 23.832-12.203 35.055-21.41l15.188 18.469-15.222-18.555a23.907 23.907 0 0 1 15.222-5.445h26.677c60.94 0 116.324 24.914 156.459 65.05 40.136 40.136 65.048 95.519 65.048 156.457v118.506c0 13.255-10.746 24-24 24H716.518c-13.255 0-24-10.745-24-24v-118.506c0-60.939 24.913-116.323 65.05-156.458 40.134-40.135 95.518-65.049 156.457-65.049zm18.514 48h-18.514c-47.69 0-91.062 19.528-122.521 50.987-31.46 31.459-50.987 74.832-50.987 122.521v94.506h566.963v-94.506c0-47.688-19.527-91.062-50.986-122.521-31.459-31.459-74.832-50.987-122.52-50.987h-18.516c-12.906 9.74-26.474 17.68-40.592 23.379-16.388 6.615-33.403 10.247-50.868 10.247-17.465 0-34.48-3.632-50.868-10.247-14.117-5.699-27.687-13.64-40.592-23.379zM1024 680.279c64.364 0 122.926 15.709 164.627 49.055 38.919 31.122 62.682 76.53 62.682 137.52 0 65.495-28.693 153.022-74.099 218.895-39.863 57.834-93.189 100.067-153.21 100.067-60.02 0-113.347-42.233-153.21-100.067-45.405-65.873-74.099-153.4-74.099-218.894 0-60.991 23.764-106.4 62.683-137.521 41.701-33.346 100.263-49.055 164.627-49.055zm134.813 86.368c-32.616-26.08-80.7-38.368-134.813-38.368-54.113 0-102.197 12.287-134.813 38.368-27.626 22.092-44.496 55.107-44.496 100.207 0 56.866 25.355 133.501 65.475 191.707 31.572 45.805 71.65 79.253 113.835 79.253 42.185 0 82.263-33.448 113.835-79.253 40.12-58.206 65.474-134.842 65.474-191.707 0-45.1-16.87-78.116-44.495-100.207z"/><path class="fil1" d="M1471.79 875.317h18.93a23.92 23.92 0 0 1 16.61 6.68c6.98 5.544 14.223 9.966 21.627 12.955 6.758 2.728 13.74 4.226 20.867 4.226 7.126 0 14.11-1.498 20.868-4.226 7.907-3.192 15.632-8.019 23.05-14.104l15.187 18.469-15.223-18.554a23.894 23.894 0 0 1 15.223-5.446h18.929c45.165 0 86.208 18.46 115.947 48.198 29.738 29.74 48.199 70.783 48.199 115.948v84.089c0 13.254-10.746 24-24 24h-436.36c-13.254 0-24-10.746-24-24v-84.089c0-45.165 18.46-86.208 48.2-115.947 29.737-29.739 70.782-48.2 115.947-48.2zm10.874 48h-10.874c-31.913 0-60.947 13.075-82.009 34.137-21.062 21.062-34.137 50.095-34.137 82.01v60.088h388.36v-60.089c0-31.915-13.075-60.947-34.136-82.01-21.063-21.061-50.096-34.136-82.009-34.136h-10.874c-9.069 6.632-18.584 12.078-28.48 16.072-12.453 5.028-25.393 7.789-38.68 7.789-13.287 0-26.228-2.76-38.681-7.789-9.896-3.994-19.41-9.441-28.48-16.072zM1549.82 493.507c47.16 0 90.235 11.643 121.143 36.36 29.256 23.394 47.119 57.415 47.119 102.998 0 47.726-20.847 111.415-53.831 159.268-29.49 42.785-69.252 74.028-114.431 74.028s-84.942-31.242-114.432-74.026c-32.984-47.855-53.83-111.543-53.83-159.27 0-45.583 17.863-79.603 47.119-102.997 30.908-24.717 73.984-36.36 121.143-36.36zm91.33 73.674c-21.824-17.452-54.422-25.674-91.33-25.674s-69.506 8.222-91.33 25.674c-17.963 14.364-28.932 35.991-28.932 65.684 0 39.099 17.506 91.896 45.205 132.083 21.199 30.755 47.712 53.214 75.057 53.214s53.857-22.46 75.056-53.215c27.7-40.186 45.206-92.983 45.206-132.082 0-29.693-10.969-51.32-28.932-65.685zM420.144 875.317h18.93a23.92 23.92 0 0 1 16.61 6.68c6.98 5.544 14.223 9.966 21.626 12.955 6.759 2.728 13.743 4.226 20.868 4.226 7.127 0 14.11-1.498 20.868-4.226 7.907-3.192 15.632-8.019 23.05-14.104l15.187 18.469-15.223-18.554a23.894 23.894 0 0 1 15.223-5.446H576.214c45.164 0 86.207 18.46 115.947 48.198 29.737 29.74 48.198 70.783 48.198 115.948v84.089c0 13.254-10.746 24-24 24H280c-13.254 0-24-10.746-24-24v-84.089c0-45.165 18.46-86.208 48.199-115.948 29.739-29.737 70.782-48.198 115.947-48.198zm10.874 48h-10.874c-31.913 0-60.946 13.075-82.009 34.136-21.061 21.063-34.136 50.096-34.136 82.01v60.089h388.36v-60.089c0-31.915-13.075-60.947-34.136-82.01-21.063-21.061-50.095-34.136-82.009-34.136H565.34c-9.069 6.632-18.584 12.078-28.48 16.072-12.453 5.028-25.394 7.789-38.68 7.789-13.288 0-26.228-2.76-38.681-7.789-9.896-3.994-19.41-9.441-28.48-16.072zM498.179 493.507c47.16 0 90.235 11.643 121.143 36.36 29.256 23.394 47.119 57.415 47.119 102.998 0 47.726-20.847 111.415-53.83 159.27-29.491 42.784-69.254 74.026-114.432 74.026-45.18 0-84.941-31.244-114.431-74.028-32.985-47.854-53.831-111.542-53.831-159.268 0-45.583 17.863-79.604 47.119-102.998 30.908-24.717 73.984-36.36 121.143-36.36zm91.33 73.674c-21.824-17.452-54.422-25.674-91.33-25.674s-69.506 8.222-91.33 25.674c-17.963 14.364-28.932 35.991-28.932 65.684 0 39.099 17.506 91.896 45.206 132.082 21.199 30.755 47.711 53.215 75.056 53.215s53.858-22.459 75.057-53.213c27.699-40.187 45.205-92.985 45.205-132.083 0-29.693-10.969-51.32-28.932-65.685z"/></g><path style="fill:none" d="M0 0h2048v2048H0z"/></svg>